<svg xmlns="http://www.w3.org/2000/svg" version="1.1" width="676" height="1024">
<rect x="0" y="0" width="676" height="1024" fill="#2c3728" />
<g transform="scale(4.000000) translate(0.5 0.5)">
<polygon fill="#747f64" fill-opacity="0.501961" points="-3,23 101,68 55,120" />
<polygon fill="#0e0f04" fill-opacity="0.501961" points="102,72 184,251 101,271" />
<polygon fill="#ecffe0" fill-opacity="0.501961" points="91,67 82,87 76,71" />
<polygon fill="#3e6b48" fill-opacity="0.501961" points="154,-16 44,4 123,51" />
<polygon fill="#0a1812" fill-opacity="0.501961" points="64,165 -4,104 -12,216" />
<polygon fill="#445933" fill-opacity="0.501961" points="55,131 104,91 -16,63" />
<polygon fill="#493741" fill-opacity="0.501961" points="89,223 88,149 -10,229" />
<polygon fill="#0e1b04" fill-opacity="0.501961" points="56,-16 18,51 -2,-16" />
<polygon fill="#c1b0af" fill-opacity="0.501961" points="30,47 40,48 47,74" />
<polygon fill="#17341c" fill-opacity="0.501961" points="100,3 114,104 63,3" />
<polygon fill="#060a07" fill-opacity="0.501961" points="184,244 184,124 123,271" />
<polygon fill="#2b1b22" fill-opacity="0.501961" points="121,271 -16,248 110,197" />
<polygon fill="#759aab" fill-opacity="0.501961" points="110,13 97,-2 122,-16" />
<polygon fill="#5e655a" fill-opacity="0.501961" points="11,23 15,83 -16,80" />
<polygon fill="#313b4c" fill-opacity="0.501961" points="97,68 85,28 32,55" />
<polygon fill="#879074" fill-opacity="0.501961" points="79,84 33,74 87,68" />
<polygon fill="#3c3d2c" fill-opacity="0.501961" points="48,232 162,185 142,160" />
<polygon fill="#9091b1" fill-opacity="0.501961" points="64,14 47,6 57,2" />
<polygon fill="#5f773e" fill-opacity="0.501961" points="86,123 99,130 99,81" />
<polygon fill="#353221" fill-opacity="0.501961" points="57,78 39,33 69,65" />
<polygon fill="#547750" fill-opacity="0.501961" points="113,76 118,31 126,67" />
<polygon fill="#1b2f14" fill-opacity="0.501961" points="169,114 99,98 89,177" />
<polygon fill="#607875" fill-opacity="0.501961" points="150,-16 125,11 125,32" />
<polygon fill="#22321c" fill-opacity="0.501961" points="11,131 35,83 15,37" />
<polygon fill="#dcc7ac" fill-opacity="0.501961" points="50,75 53,87 54,76" />
<polygon fill="#123522" fill-opacity="0.501961" points="184,69 123,67 162,-16" />
<polygon fill="#a7c3e8" fill-opacity="0.501961" points="5,31 5,22 13,33" />
<polygon fill="#c5cba2" fill-opacity="0.501961" points="41,92 45,89 36,82" />
<polygon fill="#000404" fill-opacity="0.501961" points="11,-12 -12,11 13,28" />
<polygon fill="#bfd7ff" fill-opacity="0.501961" points="90,60 90,64 85,62" />
<polygon fill="#708db3" fill-opacity="0.501961" points="67,42 78,47 77,39" />
<polygon fill="#716971" fill-opacity="0.501961" points="138,146 144,159 143,126" />
<polygon fill="#273f1a" fill-opacity="0.501961" points="41,7 75,22 -13,58" />
<polygon fill="#2c4024" fill-opacity="0.501961" points="85,122 38,82 73,86" />
<polygon fill="#172011" fill-opacity="0.501961" points="81,167 141,184 141,125" />
<polygon fill="#4d6442" fill-opacity="0.501961" points="36,141 23,99 39,92" />
<polygon fill="#efddd8" fill-opacity="0.501961" points="46,65 34,57 45,60" />
<polygon fill="#555c52" fill-opacity="0.501961" points="167,103 159,83 167,64" />
<polygon fill="#595d33" fill-opacity="0.501961" points="11,203 -2,227 28,224" />
<polygon fill="#b4c7a3" fill-opacity="0.501961" points="88,73 77,72 74,89" />
<polygon fill="#868373" fill-opacity="0.501961" points="24,51 27,67 20,74" />
<polygon fill="#243f3b" fill-opacity="0.501961" points="136,27 183,28 121,0" />
<polygon fill="#7d9d79" fill-opacity="0.501961" points="87,100 99,85 100,95" />
<polygon fill="#1c211a" fill-opacity="0.501961" points="147,188 144,119 184,111" />
<polygon fill="#364827" fill-opacity="0.501961" points="34,53 35,14 62,4" />
<polygon fill="#554f4b" fill-opacity="0.501961" points="135,181 143,159 145,190" />
<polygon fill="#2e3a21" fill-opacity="0.501961" points="33,71 11,57 35,54" />
<polygon fill="#062507" fill-opacity="0.501961" points="88,22 81,-1 100,8" />
<polygon fill="#7e88a4" fill-opacity="0.501961" points="179,-16 132,8 151,-16" />
<polygon fill="#1f2f1e" fill-opacity="0.501961" points="95,66 91,109 64,142" />
<polygon fill="#253d10" fill-opacity="0.501961" points="106,24 122,4 111,54" />
<polygon fill="#3f6885" fill-opacity="0.501961" points="93,27 83,17 83,28" />
<polygon fill="#898fb8" fill-opacity="0.501961" points="-16,36 -7,46 7,39" />
<polygon fill="#b1a37a" fill-opacity="0.501961" points="-6,74 2,68 8,72" />
<polygon fill="#a2a088" fill-opacity="0.501961" points="23,44 21,54 42,50" />
<polygon fill="#5b7a5b" fill-opacity="0.501961" points="116,8 100,32 103,15" />
<polygon fill="#182621" fill-opacity="0.501961" points="85,70 75,57 85,41" />
<polygon fill="#859fac" fill-opacity="0.501961" points="16,63 10,61 4,64" />
<polygon fill="#263116" fill-opacity="0.501961" points="28,53 40,4 21,-5" />
<polygon fill="#231e1d" fill-opacity="0.501961" points="153,253 -6,270 -15,226" />
<polygon fill="#101d11" fill-opacity="0.501961" points="20,173 -8,193 20,97" />
<polygon fill="#c8c88f" fill-opacity="0.501961" points="56,5 45,4 47,7" />
<polygon fill="#6e634d" fill-opacity="0.501961" points="56,48 56,63 36,77" />
<polygon fill="#2b4721" fill-opacity="0.501961" points="112,88 114,147 137,51" />
<polygon fill="#395632" fill-opacity="0.501961" points="61,89 72,128 75,64" />
<polygon fill="#4c9b3a" fill-opacity="0.501961" points="6,214 -4,207 13,208" />
<polygon fill="#c4b3b5" fill-opacity="0.501961" points="67,73 61,82 63,74" />
<polygon fill="#182e13" fill-opacity="0.501961" points="-16,13 -16,41 10,34" />
<polygon fill="#1a291b" fill-opacity="0.501961" points="58,10 44,50 61,45" />
<polygon fill="#6b95b0" fill-opacity="0.501961" points="56,6 62,15 67,12" />
<polygon fill="#787a62" fill-opacity="0.501961" points="38,33 39,43 46,42" />
<polygon fill="#ab9788" fill-opacity="0.501961" points="51,75 49,91 56,80" />
<polygon fill="#1d2a22" fill-opacity="0.501961" points="75,148 24,126 16,218" />
<polygon fill="#141d18" fill-opacity="0.501961" points="50,100 43,86 49,78" />
<polygon fill="#627fcf" fill-opacity="0.501961" points="64,-16 70,6 71,-16" />
<polygon fill="#cfdbbe" fill-opacity="0.501961" points="90,71 83,88 83,72" />
<polygon fill="#706435" fill-opacity="0.501961" points="81,142 71,144 77,131" />
<polygon fill="#213121" fill-opacity="0.501961" points="173,-16 66,-16 124,6" />
<polygon fill="#517b54" fill-opacity="0.501961" points="88,85 75,78 85,79" />
<polygon fill="#3a3538" fill-opacity="0.501961" points="7,219 83,143 93,226" />
<polygon fill="#2c3b24" fill-opacity="0.501961" points="14,143 17,59 -5,125" />
<polygon fill="#43657f" fill-opacity="0.501961" points="77,31 75,36 91,41" />
<polygon fill="#283b23" fill-opacity="0.501961" points="37,105 103,155 103,131" />
<polygon fill="#4d7335" fill-opacity="0.501961" points="44,4 54,24 55,12" />
<polygon fill="#64772d" fill-opacity="0.501961" points="129,25 115,49 116,30" />
<polygon fill="#0e0f00" fill-opacity="0.501961" points="105,133 119,181 106,183" />
<polygon fill="#8c9b5d" fill-opacity="0.501961" points="36,96 33,100 38,111" />
<polygon fill="#d8cbc7" fill-opacity="0.501961" points="38,62 39,56 33,64" />
<polygon fill="#0a2213" fill-opacity="0.501961" points="97,27 80,30 79,42" />
<polygon fill="#6b82dd" fill-opacity="0.501961" points="65,56 63,59 69,58" />
<polygon fill="#475b8b" fill-opacity="0.501961" points="70,64 90,61 75,58" />
<polygon fill="#344424" fill-opacity="0.501961" points="41,63 35,77 24,64" />
<polygon fill="#72825b" fill-opacity="0.501961" points="34,74 42,69 38,91" />
<polygon fill="#233120" fill-opacity="0.501961" points="74,60 58,79 59,62" />
<polygon fill="#be7e63" fill-opacity="0.501961" points="-15,243 -14,217 4,223" />
<polygon fill="#242311" fill-opacity="0.501961" points="48,47 46,69 51,63" />
<polygon fill="#112a08" fill-opacity="0.501961" points="-16,72 9,66 0,60" />
<polygon fill="#264820" fill-opacity="0.501961" points="135,18 110,63 141,46" />
<polygon fill="#0c1d04" fill-opacity="0.501961" points="30,7 40,21 52,14" />
<polygon fill="#875c54" fill-opacity="0.501961" points="45,204 62,203 46,199" />
<polygon fill="#b3acb9" fill-opacity="0.501961" points="142,134 143,144 144,138" />
<polygon fill="#807c79" fill-opacity="0.501961" points="65,105 50,108 57,102" />
<polygon fill="#688db6" fill-opacity="0.501961" points="115,22 118,20 121,23" />
<polygon fill="#2c3329" fill-opacity="0.501961" points="4,58 0,48 26,48" />
<polygon fill="#0e1a09" fill-opacity="0.501961" points="18,85 25,96 6,97" />
<polygon fill="#6c8977" fill-opacity="0.501961" points="121,65 113,72 120,73" />
<polygon fill="#0d160e" fill-opacity="0.501961" points="182,220 127,193 126,224" />
<polygon fill="#6b4d3e" fill-opacity="0.501961" points="98,200 82,198 75,207" />
<polygon fill="#1e2d1d" fill-opacity="0.501961" points="116,140 142,188 140,50" />
<polygon fill="#88a8b9" fill-opacity="0.501961" points="125,9 127,11 120,12" />
<polygon fill="#69504b" fill-opacity="0.501961" points="63,189 76,185 50,181" />
<polygon fill="#1d3f2f" fill-opacity="0.501961" points="138,5 125,20 161,10" />
<polygon fill="#2f3f2b" fill-opacity="0.501961" points="147,93 143,120 84,52" />
<polygon fill="#426377" fill-opacity="0.501961" points="166,28 161,27 167,20" />
<polygon fill="#57673d" fill-opacity="0.501961" points="97,107 91,88 86,103" />
<polygon fill="#2c432e" fill-opacity="0.501961" points="18,99 53,124 29,152" />
<polygon fill="#212a21" fill-opacity="0.501961" points="33,47 67,48 62,38" />
<polygon fill="#d4ccb1" fill-opacity="0.501961" points="41,73 47,71 43,75" />
<polygon fill="#656c42" fill-opacity="0.501961" points="8,89 14,84 -8,65" />
<polygon fill="#d5c79d" fill-opacity="0.501961" points="41,31 42,29 39,29" />
<polygon fill="#c3c6ff" fill-opacity="0.501961" points="1,22 -16,9 -7,26" />
<polygon fill="#27392c" fill-opacity="0.501961" points="74,25 31,15 75,44" />
<polygon fill="#463f32" fill-opacity="0.501961" points="46,61 32,53 64,58" />
<polygon fill="#b5c192" fill-opacity="0.501961" points="40,91 39,84 46,95" />
<polygon fill="#1a2d17" fill-opacity="0.501961" points="134,31 171,75 184,31" />
<polygon fill="#3e443f" fill-opacity="0.501961" points="11,189 18,183 32,193" />
<polygon fill="#4e743c" fill-opacity="0.501961" points="81,70 72,69 84,75" />
<polygon fill="#516d3b" fill-opacity="0.501961" points="129,40 99,42 118,48" />
<polygon fill="#6b8041" fill-opacity="0.501961" points="10,102 15,105 12,96" />
<polygon fill="#736477" fill-opacity="0.501961" points="10,42 13,58 9,51" />
<polygon fill="#1c2515" fill-opacity="0.501961" points="91,41 80,62 75,56" />
<polygon fill="#212615" fill-opacity="0.501961" points="4,221 -16,214 24,215" />
<polygon fill="#495d25" fill-opacity="0.501961" points="37,23 40,17 20,15" />
<polygon fill="#687c3d" fill-opacity="0.501961" points="160,176 157,181 149,180" />
<polygon fill="#25391c" fill-opacity="0.501961" points="47,105 68,83 47,95" />
<polygon fill="#8484a8" fill-opacity="0.501961" points="39,43 40,40 46,48" />
<polygon fill="#2c4e2a" fill-opacity="0.501961" points="92,124 90,164 106,118" />
<polygon fill="#19200a" fill-opacity="0.501961" points="104,155 100,71 115,114" />
<polygon fill="#1d2b1a" fill-opacity="0.501961" points="111,26 138,-16 123,-16" />
<polygon fill="#254121" fill-opacity="0.501961" points="105,35 105,77 122,59" />
<polygon fill="#a399a4" fill-opacity="0.501961" points="57,48 59,53 54,51" />
<polygon fill="#131c10" fill-opacity="0.501961" points="31,-9 8,27 -6,-16" />
<polygon fill="#a7b3d1" fill-opacity="0.501961" points="89,74 91,69 88,62" />
<polygon fill="#998b8c" fill-opacity="0.501961" points="144,161 142,156 143,151" />
<polygon fill="#757f65" fill-opacity="0.501961" points="79,79 65,77 64,68" />
<polygon fill="#173810" fill-opacity="0.501961" points="100,4 98,18 60,22" />
<polygon fill="#8aa163" fill-opacity="0.501961" points="114,60 112,58 113,63" />
<polygon fill="#99b7be" fill-opacity="0.501961" points="104,8 109,-7 104,-13" />
<polygon fill="#3e682e" fill-opacity="0.501961" points="72,22 75,13 59,7" />
<polygon fill="#273525" fill-opacity="0.501961" points="80,19 40,26 61,52" />
<polygon fill="#0a290a" fill-opacity="0.501961" points="65,0 66,10 56,-4" />
<polygon fill="#9cc5d7" fill-opacity="0.501961" points="91,2 92,-2 90,-6" />
<polygon fill="#193013" fill-opacity="0.501961" points="11,91 38,84 18,83" />
<polygon fill="#6e8aad" fill-opacity="0.501961" points="128,19 135,19 124,24" />
<polygon fill="#4f6d51" fill-opacity="0.501961" points="103,26 104,42 109,36" />
<polygon fill="#4c7479" fill-opacity="0.501961" points="115,6 103,19 116,-16" />
<polygon fill="#595f3d" fill-opacity="0.501961" points="26,81 23,94 21,72" />
<polygon fill="#2c4b17" fill-opacity="0.501961" points="133,27 121,20 119,27" />
<polygon fill="#6c6162" fill-opacity="0.501961" points="142,172 143,159 147,178" />
<polygon fill="#242c19" fill-opacity="0.501961" points="56,85 36,76 42,83" />
<polygon fill="#918788" fill-opacity="0.501961" points="22,68 29,72 21,64" />
<polygon fill="#767591" fill-opacity="0.501961" points="-16,32 -15,-2 3,60" />
<polygon fill="#273521" fill-opacity="0.501961" points="25,106 18,101 39,104" />
<polygon fill="#25281b" fill-opacity="0.501961" points="177,123 184,178 151,210" />
<polygon fill="#16341b" fill-opacity="0.501961" points="148,205 91,184 116,181" />
<polygon fill="#444b36" fill-opacity="0.501961" points="73,37 64,31 44,40" />
<polygon fill="#878574" fill-opacity="0.501961" points="49,80 49,74 54,73" />
<polygon fill="#807d9e" fill-opacity="0.501961" points="143,126 141,127 142,120" />
<polygon fill="#332f2e" fill-opacity="0.501961" points="28,255 86,193 32,218" />
<polygon fill="#161c2a" fill-opacity="0.501961" points="70,52 70,57 62,54" />
<polygon fill="#29320d" fill-opacity="0.501961" points="26,59 28,49 34,59" />
<polygon fill="#3d362e" fill-opacity="0.501961" points="143,176 154,153 150,184" />
<polygon fill="#8c5642" fill-opacity="0.501961" points="-1,228 13,222 14,226" />
<polygon fill="#25331f" fill-opacity="0.501961" points="19,70 33,70 4,85" />
<polygon fill="#314e4a" fill-opacity="0.501961" points="143,5 149,1 152,28" />
<polygon fill="#bfb7b6" fill-opacity="0.501961" points="31,51 40,53 30,46" />
<polygon fill="#171313" fill-opacity="0.501961" points="67,140 76,120 79,130" />
<polygon fill="#30431c" fill-opacity="0.501961" points="29,46 6,33 51,33" />
<polygon fill="#78715f" fill-opacity="0.501961" points="163,73 181,90 182,70" />
<polygon fill="#4c633f" fill-opacity="0.501961" points="59,116 82,95 76,109" />
<polygon fill="#7d94c2" fill-opacity="0.501961" points="88,40 86,37 87,41" />
<polygon fill="#353949" fill-opacity="0.501961" points="86,66 92,65 97,70" />
<polygon fill="#131e17" fill-opacity="0.501961" points="41,188 -16,166 39,152" />
<polygon fill="#514444" fill-opacity="0.501961" points="70,82 54,80 55,87" />
<polygon fill="#303b25" fill-opacity="0.501961" points="8,72 15,84 10,58" />
<polygon fill="#8a8869" fill-opacity="0.501961" points="34,96 29,98 38,102" />
<polygon fill="#2a2a23" fill-opacity="0.501961" points="79,211 108,204 116,258" />
<polygon fill="#82804b" fill-opacity="0.501961" points="84,126 92,119 92,124" />
<polygon fill="#565551" fill-opacity="0.501961" points="98,74 87,73 98,78" />
<polygon fill="#50402a" fill-opacity="0.501961" points="48,70 45,71 41,65" />
<polygon fill="#879169" fill-opacity="0.501961" points="132,5 138,1 135,8" />
<polygon fill="#586e33" fill-opacity="0.501961" points="29,40 35,52 34,37" />
<polygon fill="#97b0d5" fill-opacity="0.501961" points="82,61 87,64 91,63" />
<polygon fill="#405e4f" fill-opacity="0.501961" points="50,117 58,129 67,128" />
<polygon fill="#7a746e" fill-opacity="0.501961" points="69,48 73,46 68,38" />
<polygon fill="#36362f" fill-opacity="0.501961" points="94,169 94,200 60,199" />
<polygon fill="#323932" fill-opacity="0.501961" points="149,84 158,46 167,70" />
<polygon fill="#090e08" fill-opacity="0.501961" points="174,213 181,251 126,242" />
<polygon fill="#112319" fill-opacity="0.501961" points="92,49 88,41 72,36" />
<polygon fill="#1a2917" fill-opacity="0.501961" points="34,26 57,35 64,21" />
<polygon fill="#0b271a" fill-opacity="0.501961" points="53,5 53,8 58,11" />
<polygon fill="#a78472" fill-opacity="0.501961" points="49,59 55,56 50,56" />
<polygon fill="#14351b" fill-opacity="0.501961" points="77,33 50,14 83,25" />
<polygon fill="#50411b" fill-opacity="0.501961" points="127,197 110,194 112,202" />
<polygon fill="#7a858f" fill-opacity="0.501961" points="75,63 77,70 72,64" />
<polygon fill="#6d5938" fill-opacity="0.501961" points="47,4 55,4 55,-1" />
<polygon fill="#1e3624" fill-opacity="0.501961" points="69,127 72,158 21,148" />
<polygon fill="#5a75ab" fill-opacity="0.501961" points="79,33 73,36 82,35" />
<polygon fill="#050500" fill-opacity="0.501961" points="15,149 18,127 21,150" />
<polygon fill="#262f23" fill-opacity="0.501961" points="95,88 88,85 94,68" />
<polygon fill="#17241f" fill-opacity="0.501961" points="3,56 9,51 1,42" />
<polygon fill="#14260c" fill-opacity="0.501961" points="33,87 32,79 20,86" />
<polygon fill="#1f301b" fill-opacity="0.501961" points="24,14 17,42 7,42" />
<polygon fill="#2e611c" fill-opacity="0.501961" points="136,-16 104,-16 102,2" />
<polygon fill="#e9e6ca" fill-opacity="0.501961" points="88,70 88,76 79,78" />
<polygon fill="#22301c" fill-opacity="0.501961" points="112,65 95,90 109,44" />
<polygon fill="#acccdd" fill-opacity="0.501961" points="9,26 13,33 9,33" />
<polygon fill="#b5988a" fill-opacity="0.501961" points="56,61 56,64 54,66" />
<polygon fill="#313e23" fill-opacity="0.501961" points="13,31 9,46 34,38" />
<polygon fill="#2c3721" fill-opacity="0.501961" points="52,57 47,66 61,57" />
<polygon fill="#374a50" fill-opacity="0.501961" points="70,36 65,23 71,24" />
<polygon fill="#0d1b17" fill-opacity="0.501961" points="21,13 16,29 8,26" />
<polygon fill="#b6ecb8" fill-opacity="0.501961" points="60,15 63,16 62,13" />
<polygon fill="#162816" fill-opacity="0.501961" points="58,70 72,60 51,67" />
<polygon fill="#306236" fill-opacity="0.501961" points="84,81 79,77 80,80" />
<polygon fill="#32432f" fill-opacity="0.501961" points="72,98 95,137 61,110" />
<polygon fill="#d0e6ff" fill-opacity="0.501961" points="9,30 9,28 5,28" />
<polygon fill="#0d1100" fill-opacity="0.501961" points="105,195 100,190 114,193" />
<polygon fill="#3a5328" fill-opacity="0.501961" points="53,103 72,102 70,76" />
<polygon fill="#1f2e1f" fill-opacity="0.501961" points="5,40 -15,21 -6,4" />
<polygon fill="#6a8a71" fill-opacity="0.501961" points="114,14 103,14 105,19" />
<polygon fill="#7c8e88" fill-opacity="0.501961" points="117,71 112,70 120,67" />
<polygon fill="#628063" fill-opacity="0.501961" points="73,89 80,91 70,73" />
<polygon fill="#c7c970" fill-opacity="0.501961" points="128,31 125,30 125,28" />
<polygon fill="#1c3311" fill-opacity="0.501961" points="44,103 49,128 50,114" />
<polygon fill="#33561d" fill-opacity="0.501961" points="125,34 108,28 116,21" />
<polygon fill="#949577" fill-opacity="0.501961" points="46,62 42,74 33,78" />
<polygon fill="#b5b198" fill-opacity="0.501961" points="55,76 51,88 50,79" />
<polygon fill="#5b5e3f" fill-opacity="0.501961" points="36,76 40,82 49,77" />
<polygon fill="#6e7061" fill-opacity="0.501961" points="51,113 50,118 53,122" />
<polygon fill="#133c05" fill-opacity="0.501961" points="55,16 64,15 63,22" />
<polygon fill="#8b815d" fill-opacity="0.501961" points="50,71 54,79 52,64" />
<polygon fill="#3c548c" fill-opacity="0.501961" points="74,60 74,53 70,56" />
<polygon fill="#11190c" fill-opacity="0.501961" points="45,55 48,57 52,46" />
<polygon fill="#527a3b" fill-opacity="0.501961" points="33,105 41,109 27,119" />
<polygon fill="#67835b" fill-opacity="0.501961" points="42,99 50,109 44,90" />
<polygon fill="#b9a4b0" fill-opacity="0.501961" points="23,53 27,54 26,49" />
<polygon fill="#1c1c18" fill-opacity="0.501961" points="147,243 118,254 116,194" />
<polygon fill="#5378a2" fill-opacity="0.501961" points="79,48 78,40 73,42" />
<polygon fill="#4c5544" fill-opacity="0.501961" points="40,88 41,78 36,74" />
<polygon fill="#363e44" fill-opacity="0.501961" points="73,183 52,165 85,167" />
<polygon fill="#202a12" fill-opacity="0.501961" points="47,83 40,88 55,83" />
<polygon fill="#263f17" fill-opacity="0.501961" points="34,90 46,99 38,99" />
<polygon fill="#0d1e12" fill-opacity="0.501961" points="84,36 91,28 92,39" />
<polygon fill="#b0d05b" fill-opacity="0.501961" points="3,38 9,36 4,36" />
<polygon fill="#3f4a51" fill-opacity="0.501961" points="142,121 146,110 142,99" />
<polygon fill="#d3cfc1" fill-opacity="0.501961" points="81,85 78,82 83,81" />
<polygon fill="#838871" fill-opacity="0.501961" points="66,76 62,68 75,76" />
<polygon fill="#6a92ca" fill-opacity="0.501961" points="65,58 64,61 68,59" />
<polygon fill="#2f4438" fill-opacity="0.501961" points="21,144 33,108 23,106" />
<polygon fill="#1b2817" fill-opacity="0.501961" points="173,131 155,149 155,183" />
<polygon fill="#507463" fill-opacity="0.501961" points="57,21 53,17 46,17" />
<polygon fill="#221f1b" fill-opacity="0.501961" points="-16,241 22,223 3,271" />
<polygon fill="#112311" fill-opacity="0.501961" points="12,120 18,86 22,129" />
<polygon fill="#3b3327" fill-opacity="0.501961" points="11,218 5,208 8,234" />
<polygon fill="#39382e" fill-opacity="0.501961" points="167,153 160,128 167,120" />
<polygon fill="#799a20" fill-opacity="0.501961" points="29,48 24,49 26,44" />
<polygon fill="#2e384b" fill-opacity="0.501961" points="59,1 61,11 64,5" />
<polygon fill="#1b271a" fill-opacity="0.501961" points="144,134 144,177 155,138" />
<polygon fill="#345229" fill-opacity="0.501961" points="104,22 117,15 123,-1" />
<polygon fill="#5a462f" fill-opacity="0.501961" points="91,197 88,204 115,199" />
<polygon fill="#173019" fill-opacity="0.501961" points="91,-2 87,7 68,12" />
<polygon fill="#455424" fill-opacity="0.501961" points="83,123 101,117 97,100" />
<polygon fill="#27412c" fill-opacity="0.501961" points="88,73 94,80 103,83" />
<polygon fill="#8c98dd" fill-opacity="0.501961" points="138,-5 140,1 138,5" />
<polygon fill="#1c3729" fill-opacity="0.501961" points="136,21 126,16 154,11" />
<polygon fill="#8487b7" fill-opacity="0.501961" points="65,50 65,52 61,53" />
<polygon fill="#807665" fill-opacity="0.501961" points="21,59 34,63 28,64" />
<polygon fill="#5a8f39" fill-opacity="0.501961" points="73,14 63,14 64,17" />
<polygon fill="#2e2b2d" fill-opacity="0.501961" points="2,207 71,198 24,189" />
<polygon fill="#222f1b" fill-opacity="0.501961" points="25,7 21,-9 52,10" />
<polygon fill="#e2dda7" fill-opacity="0.501961" points="95,92 93,90 94,90" />
<polygon fill="#688464" fill-opacity="0.501961" points="11,205 14,208 13,213" />
<polygon fill="#325f29" fill-opacity="0.501961" points="72,86 83,89 78,85" />
<polygon fill="#2b3d1b" fill-opacity="0.501961" points="27,64 29,54 26,51" />
<polygon fill="#173118" fill-opacity="0.501961" points="20,60 22,50 14,65" />
<polygon fill="#3b4a31" fill-opacity="0.501961" points="23,67 37,55 33,52" />
<polygon fill="#737065" fill-opacity="0.501961" points="115,42 120,41 119,48" />
<polygon fill="#1d321b" fill-opacity="0.501961" points="97,51 114,31 98,72" />
<polygon fill="#172728" fill-opacity="0.501961" points="9,21 -7,27 -16,49" />
<polygon fill="#1f351b" fill-opacity="0.501961" points="131,97 103,104 146,117" />
<polygon fill="#585c65" fill-opacity="0.501961" points="141,132 145,135 141,122" />
<polygon fill="#284442" fill-opacity="0.501961" points="140,0 148,17 157,11" />
<polygon fill="#20351a" fill-opacity="0.501961" points="148,99 154,83 173,107" />
<polygon fill="#617c8d" fill-opacity="0.501961" points="18,62 5,61 13,59" />
<polygon fill="#334e4b" fill-opacity="0.501961" points="144,57 141,43 137,51" />
<polygon fill="#162113" fill-opacity="0.501961" points="63,39 39,48 63,46" />
<polygon fill="#5f7543" fill-opacity="0.501961" points="31,224 17,216 22,222" />
<polygon fill="#0f0c12" fill-opacity="0.501961" points="183,37 169,70 168,-8" />
<polygon fill="#555738" fill-opacity="0.501961" points="9,37 7,44 22,54" />
<polygon fill="#477b97" fill-opacity="0.501961" points="124,20 127,12 124,13" />
<polygon fill="#46503a" fill-opacity="0.501961" points="173,107 163,109 152,102" />
<polygon fill="#76938b" fill-opacity="0.501961" points="123,64 122,59 126,65" />
<polygon fill="#343e20" fill-opacity="0.501961" points="42,67 27,76 39,63" />
<polygon fill="#a5bcdd" fill-opacity="0.501961" points="84,40 88,40 86,39" />
<polygon fill="#15110b" fill-opacity="0.501961" points="114,19 106,29 109,19" />
<polygon fill="#1b3d16" fill-opacity="0.501961" points="75,71 74,67 70,72" />
<polygon fill="#7a7c58" fill-opacity="0.501961" points="8,81 7,69 3,83" />
<polygon fill="#2c4424" fill-opacity="0.501961" points="117,120 108,73 122,72" />
<polygon fill="#223318" fill-opacity="0.501961" points="33,21 19,13 30,48" />
<polygon fill="#47552a" fill-opacity="0.501961" points="120,187 133,188 130,184" />
<polygon fill="#3e3a3f" fill-opacity="0.501961" points="76,121 64,133 78,104" />
<polygon fill="#3f4c20" fill-opacity="0.501961" points="158,166 184,167 162,172" />
<polygon fill="#35562a" fill-opacity="0.501961" points="99,47 107,42 100,16" />
<polygon fill="#19361a" fill-opacity="0.501961" points="126,72 123,65 148,58" />
<polygon fill="#25352a" fill-opacity="0.501961" points="26,55 3,59 20,61" />
<polygon fill="#898466" fill-opacity="0.501961" points="36,32 39,28 42,28" />
<polygon fill="#213026" fill-opacity="0.501961" points="111,19 121,15 127,21" />
<polygon fill="#274336" fill-opacity="0.501961" points="145,6 135,3 137,36" />
<polygon fill="#c19c80" fill-opacity="0.501961" points="61,103 65,103 60,105" />
<polygon fill="#324c1d" fill-opacity="0.501961" points="128,31 114,47 137,34" />
<polygon fill="#88be68" fill-opacity="0.501961" points="10,207 12,210 7,210" />
<polygon fill="#496377" fill-opacity="0.501961" points="158,20 167,26 164,27" />
<polygon fill="#214125" fill-opacity="0.501961" points="145,45 148,31 166,21" />
<polygon fill="#43622c" fill-opacity="0.501961" points="79,9 75,12 84,19" />
<polygon fill="#847075" fill-opacity="0.501961" points="52,48 56,53 55,49" />
<polygon fill="#7f9648" fill-opacity="0.501961" points="63,112 60,113 62,116" />
<polygon fill="#35322e" fill-opacity="0.501961" points="28,202 5,201 41,235" />
<polygon fill="#c8b5b4" fill-opacity="0.501961" points="39,58 48,63 40,63" />
<polygon fill="#1c1e18" fill-opacity="0.501961" points="149,178 149,204 174,204" />
<polygon fill="#496059" fill-opacity="0.501961" points="170,84 158,84 162,91" />
<polygon fill="#99baeb" fill-opacity="0.501961" points="105,2 110,4 108,2" />
<polygon fill="#455675" fill-opacity="0.501961" points="95,62 87,56 87,60" />
<polygon fill="#cfbdad" fill-opacity="0.501961" points="46,69 40,60 45,64" />
<polygon fill="#263026" fill-opacity="0.501961" points="106,71 78,48 105,59" />
<polygon fill="#191615" fill-opacity="0.501961" points="89,94 79,104 87,90" />
<polygon fill="#0e180f" fill-opacity="0.501961" points="116,16 117,10 126,4" />
<polygon fill="#091e12" fill-opacity="0.501961" points="59,2 32,-13 66,-12" />
<polygon fill="#7a7b55" fill-opacity="0.501961" points="45,13 52,8 52,12" />
<polygon fill="#274b51" fill-opacity="0.501961" points="108,6 110,2 119,9" />
<polygon fill="#2b262e" fill-opacity="0.501961" points="78,160 77,142 94,145" />
<polygon fill="#2f2a27" fill-opacity="0.501961" points="87,217 108,243 56,271" />
<polygon fill="#272e20" fill-opacity="0.501961" points="72,48 52,26 54,38" />
<polygon fill="#152710" fill-opacity="0.501961" points="41,108 35,104 48,107" />
<polygon fill="#806e86" fill-opacity="0.501961" points="47,51 45,50 43,54" />
<polygon fill="#302b20" fill-opacity="0.501961" points="57,63 65,48 58,53" />
<polygon fill="#1c2319" fill-opacity="0.501961" points="141,169 142,144 113,189" />
<polygon fill="#244921" fill-opacity="0.501961" points="14,213 18,224 5,209" />
<polygon fill="#3c4e49" fill-opacity="0.501961" points="67,-2 75,-16 86,9" />
<polygon fill="#0e220b" fill-opacity="0.501961" points="42,81 45,88 50,83" />
<polygon fill="#7a98b2" fill-opacity="0.501961" points="113,3 116,4 114,0" />
<polygon fill="#322e2f" fill-opacity="0.501961" points="59,187 106,196 65,204" />
<polygon fill="#4b3a32" fill-opacity="0.501961" points="47,67 49,74 43,68" />
<polygon fill="#606046" fill-opacity="0.501961" points="61,37 66,38 62,30" />
<polygon fill="#354232" fill-opacity="0.501961" points="14,137 2,125 13,125" />
<polygon fill="#163017" fill-opacity="0.501961" points="88,22 75,4 100,21" />
<polygon fill="#283a24" fill-opacity="0.501961" points="92,123 107,126 110,121" />
<polygon fill="#666961" fill-opacity="0.501961" points="51,40 52,37 50,36" />
<polygon fill="#5d733e" fill-opacity="0.501961" points="108,19 113,14 113,20" />
<polygon fill="#9d8d93" fill-opacity="0.501961" points="53,81 50,88 54,89" />
<polygon fill="#060020" fill-opacity="0.501961" points="168,-16 130,-16 138,0" />
<polygon fill="#0e2a18" fill-opacity="0.501961" points="149,9 161,9 158,-12" />
<polygon fill="#665b31" fill-opacity="0.501961" points="77,135 69,142 83,141" />
<polygon fill="#11120a" fill-opacity="0.501961" points="124,218 142,228 140,194" />
<polygon fill="#2c362d" fill-opacity="0.501961" points="146,196 140,186 143,210" />
<polygon fill="#4c5747" fill-opacity="0.501961" points="54,88 48,95 46,88" />
<polygon fill="#6d8568" fill-opacity="0.501961" points="3,29 6,30 3,32" />
<polygon fill="#557f96" fill-opacity="0.501961" points="84,22 90,25 82,25" />
<polygon fill="#768c41" fill-opacity="0.501961" points="68,90 66,94 67,95" />
<polygon fill="#5c5c4f" fill-opacity="0.501961" points="50,98 53,118 55,103" />
<polygon fill="#182319" fill-opacity="0.501961" points="83,47 95,49 79,35" />
<polygon fill="#413a3a" fill-opacity="0.501961" points="70,230 84,215 76,185" />
<polygon fill="#dde2ba" fill-opacity="0.501961" points="84,70 85,72 79,72" />
<polygon fill="#95886b" fill-opacity="0.501961" points="13,69 13,67 11,65" />
<polygon fill="#18391a" fill-opacity="0.501961" points="58,18 72,26 87,25" />
<polygon fill="#20241c" fill-opacity="0.501961" points="104,198 103,230 139,236" />
<polygon fill="#1c341e" fill-opacity="0.501961" points="71,115 57,115 66,126" />
<polygon fill="#daf5ff" fill-opacity="0.501961" points="39,49 42,51 39,50" />
<polygon fill="#1c2c13" fill-opacity="0.501961" points="12,89 -10,99 27,94" />
<polygon fill="#5a603f" fill-opacity="0.501961" points="21,43 21,33 19,36" />
<polygon fill="#376d2f" fill-opacity="0.501961" points="83,85 82,92 68,94" />
<polygon fill="#232b1d" fill-opacity="0.501961" points="41,33 23,36 26,26" />
<polygon fill="#364735" fill-opacity="0.501961" points="21,107 33,96 24,130" />
<polygon fill="#f5fcea" fill-opacity="0.501961" points="88,71 92,72 88,69" />
<polygon fill="#8c8779" fill-opacity="0.501961" points="96,70 95,72 96,74" />
<polygon fill="#293c21" fill-opacity="0.501961" points="23,70 3,67 19,75" />
<polygon fill="#6f6d6f" fill-opacity="0.501961" points="178,110 165,96 176,117" />
<polygon fill="#588348" fill-opacity="0.501961" points="77,6 73,-8 62,-16" />
<polygon fill="#213911" fill-opacity="0.501961" points="42,4 31,8 53,11" />
<polygon fill="#213329" fill-opacity="0.501961" points="56,22 72,30 72,43" />
<polygon fill="#1c3f13" fill-opacity="0.501961" points="31,120 40,113 50,114" />
<polygon fill="#141010" fill-opacity="0.501961" points="169,156 179,117 168,92" />
<polygon fill="#172319" fill-opacity="0.501961" points="4,198 28,164 4,132" />
<polygon fill="#1f2f1a" fill-opacity="0.501961" points="38,92 26,94 37,88" />
<polygon fill="#b2bd74" fill-opacity="0.501961" points="21,88 23,90 24,89" />
<polygon fill="#717e53" fill-opacity="0.501961" points="42,80 39,76 42,70" />
<polygon fill="#374734" fill-opacity="0.501961" points="51,131 67,116 43,119" />
<polygon fill="#333803" fill-opacity="0.501961" points="111,142 114,121 118,146" />
<polygon fill="#13211b" fill-opacity="0.501961" points="67,68 72,60 66,61" />
<polygon fill="#d8d8aa" fill-opacity="0.501961" points="43,89 38,91 44,92" />
<polygon fill="#bc875e" fill-opacity="0.501961" points="4,225 -16,228 -16,222" />
<polygon fill="#354329" fill-opacity="0.501961" points="25,81 28,64 42,64" />
<polygon fill="#d7d6d4" fill-opacity="0.501961" points="35,49 31,50 35,51" />
<polygon fill="#253423" fill-opacity="0.501961" points="12,94 22,88 17,56" />
<polygon fill="#1c1d1e" fill-opacity="0.501961" points="76,65 84,66 79,63" />
<polygon fill="#354031" fill-opacity="0.501961" points="126,92 109,77 160,91" />
<polygon fill="#2e4a24" fill-opacity="0.501961" points="63,106 67,97 88,105" />
<polygon fill="#4d4c34" fill-opacity="0.501961" points="55,75 67,70 60,76" />
<polygon fill="#486981" fill-opacity="0.501961" points="88,57 80,63 86,62" />
<polygon fill="#133010" fill-opacity="0.501961" points="102,3 100,14 81,19" />
<polygon fill="#48553d" fill-opacity="0.501961" points="26,49 14,53 17,48" />
<polygon fill="#30413c" fill-opacity="0.501961" points="157,57 176,55 159,51" />
<polygon fill="#6f7c61" fill-opacity="0.501961" points="98,3 96,-13 119,-14" />
<polygon fill="#596fa2" fill-opacity="0.501961" points="73,59 77,63 71,65" />
<polygon fill="#121605" fill-opacity="0.501961" points="120,156 110,183 96,172" />
<polygon fill="#1c261a" fill-opacity="0.501961" points="121,133 132,188 142,113" />
<polygon fill="#332a2c" fill-opacity="0.501961" points="43,53 43,61 49,59" />
<polygon fill="#433f25" fill-opacity="0.501961" points="47,62 51,58 56,65" />
<polygon fill="#435142" fill-opacity="0.501961" points="34,53 37,48 34,43" />
<polygon fill="#96ae92" fill-opacity="0.501961" points="88,77 81,80 83,87" />
<polygon fill="#35402a" fill-opacity="0.501961" points="4,39 2,36 5,31" />
<polygon fill="#263c41" fill-opacity="0.501961" points="80,45 77,42 83,35" />
<polygon fill="#203c2c" fill-opacity="0.501961" points="95,180 130,189 114,191" />
<polygon fill="#494045" fill-opacity="0.501961" points="43,206 63,191 49,191" />
<polygon fill="#102611" fill-opacity="0.501961" points="157,41 146,44 160,58" />
<polygon fill="#4e5934" fill-opacity="0.501961" points="-8,83 14,74 -16,72" />
<polygon fill="#142d1a" fill-opacity="0.501961" points="139,39 133,45 141,60" />
<polygon fill="#5d4954" fill-opacity="0.501961" points="60,76 60,81 52,87" />
<polygon fill="#89ab9b" fill-opacity="0.501961" points="98,89 97,92 94,91" />
<polygon fill="#396611" fill-opacity="0.501961" points="48,14 42,5 46,1" />
<polygon fill="#202b0d" fill-opacity="0.501961" points="99,79 112,103 110,73" />
<polygon fill="#5c7648" fill-opacity="0.501961" points="90,91 90,98 100,97" />
<polygon fill="#1e261c" fill-opacity="0.501961" points="167,97 180,87 170,65" />
<polygon fill="#1c291a" fill-opacity="0.501961" points="19,16 19,47 11,37" />
<polygon fill="#83a9dc" fill-opacity="0.501961" points="108,5 114,3 110,3" />
<polygon fill="#2e2b27" fill-opacity="0.501961" points="49,51 51,55 58,53" />
<polygon fill="#29453e" fill-opacity="0.501961" points="28,148 43,149 38,152" />
<polygon fill="#475e45" fill-opacity="0.501961" points="77,77 66,82 72,84" />
<polygon fill="#475f53" fill-opacity="0.501961" points="93,54 95,50 89,50" />
<polygon fill="#d4ddc4" fill-opacity="0.501961" points="78,73 81,76 76,74" />
<polygon fill="#89ab86" fill-opacity="0.501961" points="112,10 110,9 114,8" />
<polygon fill="#142110" fill-opacity="0.501961" points="33,15 45,20 43,-7" />
<polygon fill="#babdad" fill-opacity="0.501961" points="85,83 70,80 78,84" />
<polygon fill="#292824" fill-opacity="0.501961" points="165,78 167,81 161,87" />
<polygon fill="#18291f" fill-opacity="0.501961" points="88,55 90,28 95,39" />
<polygon fill="#242f25" fill-opacity="0.501961" points="83,55 87,61 72,56" />
<polygon fill="#344128" fill-opacity="0.501961" points="-16,114 -10,76 8,85" />
<polygon fill="#d3cdb7" fill-opacity="0.501961" points="46,74 43,75 43,72" />
<polygon fill="#163219" fill-opacity="0.501961" points="52,69 58,67 52,72" />
<polygon fill="#286610" fill-opacity="0.501961" points="43,75 47,75 48,77" />
<polygon fill="#232a1c" fill-opacity="0.501961" points="165,62 184,76 140,65" />
<polygon fill="#dbc3b3" fill-opacity="0.501961" points="51,5 50,8 48,4" />
<polygon fill="#75705d" fill-opacity="0.501961" points="9,78 6,65 5,75" />
<polygon fill="#5c4142" fill-opacity="0.501961" points="136,176 142,174 138,171" />
<polygon fill="#3c3632" fill-opacity="0.501961" points="32,9 26,3 36,5" />
<polygon fill="#47703b" fill-opacity="0.501961" points="73,112 76,106 61,112" />
<polygon fill="#404738" fill-opacity="0.501961" points="66,82 71,82 69,74" />
<polygon fill="#182719" fill-opacity="0.501961" points="144,141 146,102 154,130" />
<polygon fill="#475f5d" fill-opacity="0.501961" points="152,29 156,30 150,22" />
<polygon fill="#4c5a45" fill-opacity="0.501961" points="48,34 41,31 43,28" />
<polygon fill="#5d8436" fill-opacity="0.501961" points="48,21 55,12 52,11" />
<polygon fill="#4b4b3e" fill-opacity="0.501961" points="91,194 98,188 85,188" />
<polygon fill="#273623" fill-opacity="0.501961" points="19,43 12,52 19,68" />
<polygon fill="#30412c" fill-opacity="0.501961" points="89,71 117,55 106,54" />
<polygon fill="#5f3d2e" fill-opacity="0.501961" points="5,226 -1,227 9,231" />
<polygon fill="#575444" fill-opacity="0.501961" points="38,71 26,66 35,66" />
<polygon fill="#344835" fill-opacity="0.501961" points="96,88 86,82 87,91" />
<polygon fill="#224938" fill-opacity="0.501961" points="102,29 86,18 96,30" />
<polygon fill="#7a7457" fill-opacity="0.501961" points="54,70 52,75 56,70" />
<polygon fill="#1f2f19" fill-opacity="0.501961" points="93,110 82,119 74,109" />
<polygon fill="#1b3423" fill-opacity="0.501961" points="153,30 143,5 138,17" />
<polygon fill="#978a62" fill-opacity="0.501961" points="52,5 52,2 44,5" />
<polygon fill="#3c5443" fill-opacity="0.501961" points="90,-16 125,4 98,-2" />
<polygon fill="#272f11" fill-opacity="0.501961" points="35,80 29,77 31,81" />
<polygon fill="#536090" fill-opacity="0.501961" points="140,7 142,-16 154,-16" />
<polygon fill="#25421c" fill-opacity="0.501961" points="116,30 133,43 143,38" />
<polygon fill="#46672a" fill-opacity="0.501961" points="46,115 37,107 47,111" />
<polygon fill="#dcb094" fill-opacity="0.501961" points="56,78 54,77 51,79" />
<polygon fill="#0e190e" fill-opacity="0.501961" points="143,197 176,209 149,239" />
<polygon fill="#617b2b" fill-opacity="0.501961" points="152,177 157,177 159,182" />
<polygon fill="#9a91b8" fill-opacity="0.501961" points="-14,53 -14,60 2,58" />
<polygon fill="#3f372c" fill-opacity="0.501961" points="2,52 -16,52 -8,88" />
<polygon fill="#271e19" fill-opacity="0.501961" points="141,173 142,179 130,189" />
<polygon fill="#4d6ba5" fill-opacity="0.501961" points="55,6 59,3 62,14" />
<polygon fill="#475170" fill-opacity="0.501961" points="77,180 67,177 78,177" />
<polygon fill="#43583e" fill-opacity="0.501961" points="108,72 113,78 114,71" />
<polygon fill="#7f9bcd" fill-opacity="0.501961" points="131,19 127,23 128,19" />
<polygon fill="#291f06" fill-opacity="0.501961" points="108,179 119,186 117,172" />
<polygon fill="#aea980" fill-opacity="0.501961" points="2,69 2,72 -5,71" />
<polygon fill="#0f260c" fill-opacity="0.501961" points="54,16 58,11 60,24" />
<polygon fill="#1b3a19" fill-opacity="0.501961" points="-16,164 9,205 -12,210" />
<polygon fill="#1f2d23" fill-opacity="0.501961" points="21,188 71,144 57,171" />
<polygon fill="#c0bbe5" fill-opacity="0.501961" points="10,61 13,61 12,62" />
<polygon fill="#141d07" fill-opacity="0.501961" points="115,146 128,184 99,143" />
<polygon fill="#143318" fill-opacity="0.501961" points="72,14 81,35 80,20" />
<polygon fill="#a8b488" fill-opacity="0.501961" points="73,89 73,88 76,87" />
<polygon fill="#323c38" fill-opacity="0.501961" points="55,189 65,168 27,199" />
<polygon fill="#5b5a58" fill-opacity="0.501961" points="154,151 153,158 152,151" />
<polygon fill="#554e3d" fill-opacity="0.501961" points="166,157 162,168 162,161" />
<polygon fill="#987f6d" fill-opacity="0.501961" points="39,61 39,59 43,57" />
</g>
</svg>