<svg xmlns="http://www.w3.org/2000/svg" version="1.1" width="576" height="1024">
<rect x="0" y="0" width="576" height="1024" fill="#566469" />
<g transform="scale(4.000000) translate(0.5 0.5)">
<polygon fill="#cdf8ff" fill-opacity="0.501961" points="22,-16 44,166 159,8" />
<polygon fill="#010000" fill-opacity="0.501961" points="159,223 -16,226 135,69" />
<polygon fill="#000000" fill-opacity="0.501961" points="2,-16 47,166 -16,212" />
<polygon fill="#d2e5ff" fill-opacity="0.501961" points="23,92 25,48 159,71" />
<polygon fill="#4e8ccc" fill-opacity="0.501961" points="158,93 159,-14 43,41" />
<polygon fill="#000000" fill-opacity="0.501961" points="24,55 29,-8 -13,-16" />
<polygon fill="#000b00" fill-opacity="0.501961" points="151,171 159,71 44,165" />
<polygon fill="#9f9b95" fill-opacity="0.501961" points="77,199 21,213 134,217" />
<polygon fill="#cbdef8" fill-opacity="0.501961" points="76,37 36,148 88,126" />
<polygon fill="#000700" fill-opacity="0.501961" points="39,147 -16,183 -16,27" />
<polygon fill="#132508" fill-opacity="0.501961" points="85,169 101,79 159,103" />
<polygon fill="#faf5ff" fill-opacity="0.501961" points="14,194 7,213 3,196" />
<polygon fill="#eeebfc" fill-opacity="0.501961" points="77,2 146,-12 93,21" />
<polygon fill="#d6ddef" fill-opacity="0.501961" points="72,81 22,83 29,17" />
<polygon fill="#8b8073" fill-opacity="0.501961" points="-16,226 133,271 111,222" />
<polygon fill="#6090be" fill-opacity="0.501961" points="112,83 159,47 9,-16" />
<polygon fill="#827764" fill-opacity="0.501961" points="10,77 40,115 15,44" />
<polygon fill="#000700" fill-opacity="0.501961" points="90,129 58,140 62,167" />
<polygon fill="#44463a" fill-opacity="0.501961" points="159,220 42,151 -16,189" />
<polygon fill="#becfe2" fill-opacity="0.501961" points="49,162 86,50 32,52" />
<polygon fill="#5c8ab4" fill-opacity="0.501961" points="51,60 100,39 21,50" />
<polygon fill="#a3978a" fill-opacity="0.501961" points="159,219 104,215 136,208" />
<polygon fill="#000000" fill-opacity="0.501961" points="-6,227 1,212 45,218" />
<polygon fill="#6a97ba" fill-opacity="0.501961" points="154,98 82,31 146,-16" />
<polygon fill="#a6c2dc" fill-opacity="0.501961" points="43,73 37,142 100,96" />
<polygon fill="#182311" fill-opacity="0.501961" points="83,121 117,76 139,216" />
<polygon fill="#9cbfd9" fill-opacity="0.501961" points="94,116 35,128 69,91" />
<polygon fill="#010000" fill-opacity="0.501961" points="10,176 3,209 -9,211" />
<polygon fill="#0d1b26" fill-opacity="0.501961" points="30,-16 23,39 -16,23" />
<polygon fill="#e7ebf2" fill-opacity="0.501961" points="89,71 27,55 23,85" />
<polygon fill="#6494bc" fill-opacity="0.501961" points="159,64 144,-16 82,85" />
<polygon fill="#645a49" fill-opacity="0.501961" points="34,83 19,107 39,105" />
<polygon fill="#0f0704" fill-opacity="0.501961" points="24,208 7,187 24,174" />
<polygon fill="#6d90b3" fill-opacity="0.501961" points="14,175 8,167 27,166" />
<polygon fill="#000800" fill-opacity="0.501961" points="101,169 159,164 159,88" />
<polygon fill="#d6daee" fill-opacity="0.501961" points="26,38 31,15 51,21" />
<polygon fill="#100c04" fill-opacity="0.501961" points="95,219 140,231 155,218" />
<polygon fill="#6f6b61" fill-opacity="0.501961" points="159,257 156,225 42,221" />
<polygon fill="#4e4d42" fill-opacity="0.501961" points="30,112 56,177 32,153" />
<polygon fill="#c9d0de" fill-opacity="0.501961" points="63,17 123,15 92,-1" />
<polygon fill="#071100" fill-opacity="0.501961" points="23,98 -16,70 7,177" />
<polygon fill="#bcdcee" fill-opacity="0.501961" points="84,122 75,134 62,123" />
<polygon fill="#484d4b" fill-opacity="0.501961" points="25,60 11,7 4,91" />
<polygon fill="#495850" fill-opacity="0.501961" points="98,163 53,180 108,183" />
<polygon fill="#d4d6ee" fill-opacity="0.501961" points="7,195 3,211 13,204" />
<polygon fill="#8e8b90" fill-opacity="0.501961" points="49,214 16,213 33,207" />
<polygon fill="#1c2e15" fill-opacity="0.501961" points="129,75 100,90 159,122" />
<polygon fill="#1a1c0e" fill-opacity="0.501961" points="148,210 139,195 91,207" />
<polygon fill="#aac3dd" fill-opacity="0.501961" points="96,81 94,105 32,92" />
<polygon fill="#afc1c9" fill-opacity="0.501961" points="138,173 159,164 159,182" />
<polygon fill="#080c0d" fill-opacity="0.501961" points="5,69 9,-3 -16,41" />
<polygon fill="#3b4034" fill-opacity="0.501961" points="38,96 37,121 23,138" />
<polygon fill="#0b0e0c" fill-opacity="0.501961" points="40,215 65,226 98,217" />
<polygon fill="#101b10" fill-opacity="0.501961" points="59,140 98,124 59,178" />
<polygon fill="#686862" fill-opacity="0.501961" points="-16,246 22,220 85,222" />
<polygon fill="#374750" fill-opacity="0.501961" points="100,204 24,212 77,191" />
<polygon fill="#22311d" fill-opacity="0.501961" points="137,145 79,120 130,110" />
<polygon fill="#83b0d0" fill-opacity="0.501961" points="133,83 157,86 137,55" />
<polygon fill="#ccd7dd" fill-opacity="0.501961" points="39,138 58,150 39,102" />
<polygon fill="#7898c1" fill-opacity="0.501961" points="46,66 46,-14 83,-16" />
<polygon fill="#8ca3b9" fill-opacity="0.501961" points="121,26 156,-16 77,25" />
<polygon fill="#7a7976" fill-opacity="0.501961" points="-15,227 141,231 67,262" />
<polygon fill="#4a5046" fill-opacity="0.501961" points="29,82 37,122 21,95" />
<polygon fill="#5387b3" fill-opacity="0.501961" points="159,14 128,48 63,40" />
<polygon fill="#78a3c5" fill-opacity="0.501961" points="119,60 113,85 81,61" />
<polygon fill="#e9edf5" fill-opacity="0.501961" points="77,52 77,86 57,66" />
<polygon fill="#736862" fill-opacity="0.501961" points="10,208 24,214 2,212" />
<polygon fill="#040a11" fill-opacity="0.501961" points="13,209 31,211 17,188" />
<polygon fill="#1e2f1c" fill-opacity="0.501961" points="103,109 149,88 101,81" />
<polygon fill="#081210" fill-opacity="0.501961" points="53,152 52,165 93,169" />
<polygon fill="#8a857d" fill-opacity="0.501961" points="73,205 95,215 42,213" />
<polygon fill="#000403" fill-opacity="0.501961" points="100,224 79,217 124,217" />
<polygon fill="#8e8581" fill-opacity="0.501961" points="38,191 44,199 45,191" />
<polygon fill="#b5cedf" fill-opacity="0.501961" points="37,137 60,114 95,114" />
<polygon fill="#857c6d" fill-opacity="0.501961" points="24,82 15,83 17,60" />
<polygon fill="#384a5b" fill-opacity="0.501961" points="64,174 21,175 23,164" />
<polygon fill="#150d16" fill-opacity="0.501961" points="46,209 34,181 34,208" />
<polygon fill="#bfccd9" fill-opacity="0.501961" points="25,82 45,86 71,46" />
<polygon fill="#000000" fill-opacity="0.501961" points="42,219 7,213 -11,224" />
<polygon fill="#24331e" fill-opacity="0.501961" points="109,115 77,131 96,153" />
<polygon fill="#050c01" fill-opacity="0.501961" points="32,160 15,136 -16,159" />
<polygon fill="#312c23" fill-opacity="0.501961" points="73,188 0,172 13,191" />
<polygon fill="#000503" fill-opacity="0.501961" points="61,221 25,220 44,215" />
<polygon fill="#3a3325" fill-opacity="0.501961" points="110,172 58,195 159,196" />
<polygon fill="#aec0d5" fill-opacity="0.501961" points="27,25 26,53 59,41" />
<polygon fill="#455863" fill-opacity="0.501961" points="43,210 48,197 94,207" />
<polygon fill="#d4d8da" fill-opacity="0.501961" points="48,142 57,140 49,161" />
<polygon fill="#b3aba1" fill-opacity="0.501961" points="157,220 159,212 130,216" />
<polygon fill="#212126" fill-opacity="0.501961" points="45,151 47,170 28,167" />
<polygon fill="#7b7369" fill-opacity="0.501961" points="125,210 90,216 105,208" />
<polygon fill="#504f47" fill-opacity="0.501961" points="88,201 68,191 123,192" />
<polygon fill="#95795d" fill-opacity="0.501961" points="37,137 43,154 47,143" />
<polygon fill="#586542" fill-opacity="0.501961" points="62,183 32,180 69,173" />
<polygon fill="#000000" fill-opacity="0.501961" points="5,195 0,210 -16,206" />
<polygon fill="#f8fdff" fill-opacity="0.501961" points="36,60 25,56 26,72" />
<polygon fill="#464a46" fill-opacity="0.501961" points="106,221 79,227 125,229" />
<polygon fill="#f1f1ff" fill-opacity="0.501961" points="13,195 5,203 6,196" />
<polygon fill="#000000" fill-opacity="0.501961" points="140,225 116,220 159,217" />
<polygon fill="#6f90b7" fill-opacity="0.501961" points="29,17 76,0 28,-10" />
<polygon fill="#52534e" fill-opacity="0.501961" points="159,271 159,251 99,246" />
<polygon fill="#1b2814" fill-opacity="0.501961" points="33,111 0,127 23,142" />
<polygon fill="#141d23" fill-opacity="0.501961" points="16,-16 34,-16 11,48" />
<polygon fill="#dde4ee" fill-opacity="0.501961" points="89,11 110,-16 104,16" />
<polygon fill="#0d0f10" fill-opacity="0.501961" points="4,193 27,196 7,186" />
<polygon fill="#88806f" fill-opacity="0.501961" points="1,70 -16,33 -16,128" />
<polygon fill="#27432a" fill-opacity="0.501961" points="86,108 103,102 90,113" />
<polygon fill="#8e7a64" fill-opacity="0.501961" points="37,98 36,84 32,104" />
<polygon fill="#646462" fill-opacity="0.501961" points="-12,236 22,271 82,245" />
<polygon fill="#a0bed6" fill-opacity="0.501961" points="77,133 79,87 44,87" />
<polygon fill="#a6b7ce" fill-opacity="0.501961" points="82,19 64,14 89,-16" />
<polygon fill="#4d5d70" fill-opacity="0.501961" points="96,181 98,162 93,168" />
<polygon fill="#bcd5e5" fill-opacity="0.501961" points="57,139 84,125 63,123" />
<polygon fill="#7a7467" fill-opacity="0.501961" points="-1,184 8,180 -3,178" />
<polygon fill="#4c5b77" fill-opacity="0.501961" points="12,211 10,202 14,200" />
<polygon fill="#6a9ac2" fill-opacity="0.501961" points="159,85 153,54 64,45" />
<polygon fill="#010701" fill-opacity="0.501961" points="147,117 159,134 105,117" />
<polygon fill="#1e2d1e" fill-opacity="0.501961" points="126,101 120,89 94,100" />
<polygon fill="#6a6b61" fill-opacity="0.501961" points="121,200 122,190 117,198" />
<polygon fill="#08090a" fill-opacity="0.501961" points="139,179 128,181 110,167" />
<polygon fill="#10190f" fill-opacity="0.501961" points="66,136 70,179 56,155" />
<polygon fill="#060e03" fill-opacity="0.501961" points="154,166 95,160 120,132" />
<polygon fill="#7ba1c2" fill-opacity="0.501961" points="44,36 43,61 63,58" />
<polygon fill="#1f2d17" fill-opacity="0.501961" points="29,152 39,141 4,123" />
<polygon fill="#0d140e" fill-opacity="0.501961" points="72,133 57,166 92,166" />
<polygon fill="#8e7b58" fill-opacity="0.501961" points="14,84 10,75 9,81" />
<polygon fill="#545754" fill-opacity="0.501961" points="27,86 22,109 35,108" />
<polygon fill="#4f677e" fill-opacity="0.501961" points="25,174 24,167 3,172" />
<polygon fill="#142853" fill-opacity="0.501961" points="75,173 106,174 83,165" />
<polygon fill="#8c7f73" fill-opacity="0.501961" points="52,207 75,215 30,213" />
<polygon fill="#121f0b" fill-opacity="0.501961" points="17,88 -16,80 27,118" />
<polygon fill="#a4bfd7" fill-opacity="0.501961" points="39,115 85,79 100,96" />
<polygon fill="#2c3633" fill-opacity="0.501961" points="82,207 97,190 112,206" />
<polygon fill="#656155" fill-opacity="0.501961" points="27,179 19,182 9,179" />
<polygon fill="#cddeeb" fill-opacity="0.501961" points="27,80 24,88 23,83" />
<polygon fill="#26371c" fill-opacity="0.501961" points="132,124 80,118 105,138" />
<polygon fill="#655d53" fill-opacity="0.501961" points="22,75 25,46 17,48" />
<polygon fill="#a4c1d9" fill-opacity="0.501961" points="89,116 38,95 40,122" />
<polygon fill="#5e89ae" fill-opacity="0.501961" points="154,7 141,33 119,6" />
<polygon fill="#abbeeb" fill-opacity="0.501961" points="31,210 34,210 32,206" />
<polygon fill="#000604" fill-opacity="0.501961" points="2,178 3,173 13,177" />
<polygon fill="#2b3f1c" fill-opacity="0.501961" points="131,85 107,93 130,74" />
<polygon fill="#24331a" fill-opacity="0.501961" points="85,139 89,156 118,151" />
<polygon fill="#3e3c3f" fill-opacity="0.501961" points="-16,214 12,213 -16,198" />
<polygon fill="#9d968b" fill-opacity="0.501961" points="105,214 85,215 92,211" />
<polygon fill="#b8cdd7" fill-opacity="0.501961" points="54,145 40,139 70,125" />
<polygon fill="#bda88b" fill-opacity="0.501961" points="38,94 30,82 32,91" />
<polygon fill="#465154" fill-opacity="0.501961" points="59,168 47,162 40,190" />
<polygon fill="#59554f" fill-opacity="0.501961" points="117,214 108,208 90,212" />
<polygon fill="#446340" fill-opacity="0.501961" points="132,82 137,91 143,86" />
<polygon fill="#242016" fill-opacity="0.501961" points="38,190 70,190 64,182" />
<polygon fill="#3e403d" fill-opacity="0.501961" points="137,172 159,172 159,143" />
<polygon fill="#6192ba" fill-opacity="0.501961" points="141,63 110,14 57,45" />
<polygon fill="#ced7e2" fill-opacity="0.501961" points="28,40 43,34 38,50" />
<polygon fill="#7b9fbe" fill-opacity="0.501961" points="58,52 25,48 30,56" />
<polygon fill="#625e59" fill-opacity="0.501961" points="143,216 144,210 124,212" />
<polygon fill="#cad3e0" fill-opacity="0.501961" points="61,51 79,53 90,77" />
<polygon fill="#7f817c" fill-opacity="0.501961" points="93,227 87,243 33,237" />
<polygon fill="#7aa7c9" fill-opacity="0.501961" points="115,75 89,70 112,83" />
<polygon fill="#2c3336" fill-opacity="0.501961" points="6,75 15,18 27,29" />
<polygon fill="#0d160d" fill-opacity="0.501961" points="59,140 105,128 67,152" />
<polygon fill="#32393f" fill-opacity="0.501961" points="-15,152 -16,169 17,176" />
<polygon fill="#000608" fill-opacity="0.501961" points="118,102 105,117 135,103" />
<polygon fill="#131415" fill-opacity="0.501961" points="37,204 12,201 21,210" />
<polygon fill="#b2cbe2" fill-opacity="0.501961" points="86,88 96,92 91,106" />
<polygon fill="#d2dbe6" fill-opacity="0.501961" points="120,3 138,-16 87,-3" />
<polygon fill="#646f77" fill-opacity="0.501961" points="29,129 29,125 36,128" />
<polygon fill="#d2d8e3" fill-opacity="0.501961" points="27,17 33,31 43,18" />
<polygon fill="#011508" fill-opacity="0.501961" points="21,175 31,177 12,179" />
<polygon fill="#2a2517" fill-opacity="0.501961" points="129,206 122,189 159,166" />
<polygon fill="#89a9c7" fill-opacity="0.501961" points="84,54 80,65 110,72" />
<polygon fill="#cdd8e2" fill-opacity="0.501961" points="86,73 62,95 57,77" />
<polygon fill="#646c5f" fill-opacity="0.501961" points="72,182 77,182 74,168" />
<polygon fill="#7a7f78" fill-opacity="0.501961" points="87,199 84,196 78,198" />
<polygon fill="#302f22" fill-opacity="0.501961" points="88,190 78,199 75,170" />
<polygon fill="#596887" fill-opacity="0.501961" points="124,174 127,171 129,173" />
<polygon fill="#9bb0c5" fill-opacity="0.501961" points="118,24 129,23 110,7" />
<polygon fill="#070d06" fill-opacity="0.501961" points="-8,129 34,114 0,103" />
<polygon fill="#6c7178" fill-opacity="0.501961" points="10,33 12,46 7,45" />
<polygon fill="#24311c" fill-opacity="0.501961" points="15,149 17,159 1,153" />
<polygon fill="#020706" fill-opacity="0.501961" points="68,215 78,221 54,221" />
<polygon fill="#283b1c" fill-opacity="0.501961" points="149,152 131,140 140,138" />
<polygon fill="#283622" fill-opacity="0.501961" points="21,130 23,139 40,130" />
<polygon fill="#000304" fill-opacity="0.501961" points="137,224 121,218 104,221" />
<polygon fill="#2c2b1f" fill-opacity="0.501961" points="71,195 44,193 45,200" />
<polygon fill="#3c414a" fill-opacity="0.501961" points="34,212 47,212 36,209" />
<polygon fill="#98afcb" fill-opacity="0.501961" points="44,36 66,24 26,33" />
<polygon fill="#4c4d45" fill-opacity="0.501961" points="32,92 23,98 27,84" />
<polygon fill="#c6d0d8" fill-opacity="0.501961" points="46,148 46,124 59,149" />
<polygon fill="#50553e" fill-opacity="0.501961" points="71,182 113,181 93,174" />
<polygon fill="#43403a" fill-opacity="0.501961" points="30,184 23,207 38,197" />
<polygon fill="#24261b" fill-opacity="0.501961" points="99,195 104,171 96,180" />
<polygon fill="#cdd8e4" fill-opacity="0.501961" points="40,94 35,67 55,58" />
<polygon fill="#161e19" fill-opacity="0.501961" points="72,172 80,153 73,133" />
<polygon fill="#030a01" fill-opacity="0.501961" points="128,138 159,134 136,107" />
<polygon fill="#4d5355" fill-opacity="0.501961" points="26,117 18,123 29,119" />
<polygon fill="#254609" fill-opacity="0.501961" points="70,175 63,179 78,179" />
<polygon fill="#6d7176" fill-opacity="0.501961" points="35,167 32,168 34,174" />
<polygon fill="#000308" fill-opacity="0.501961" points="11,-2 10,12 2,-16" />
<polygon fill="#2a231e" fill-opacity="0.501961" points="24,180 -15,187 18,195" />
<polygon fill="#514842" fill-opacity="0.501961" points="42,144 46,159 38,153" />
<polygon fill="#aac2d5" fill-opacity="0.501961" points="48,69 64,94 37,127" />
<polygon fill="#6f6656" fill-opacity="0.501961" points="159,180 156,186 135,180" />
<polygon fill="#6b91b6" fill-opacity="0.501961" points="29,15 67,14 73,-3" />
<polygon fill="#729fc4" fill-opacity="0.501961" points="91,60 125,78 134,61" />
<polygon fill="#203021" fill-opacity="0.501961" points="144,84 126,114 159,102" />
<polygon fill="#3f3c34" fill-opacity="0.501961" points="13,83 17,57 9,52" />
<polygon fill="#494e4d" fill-opacity="0.501961" points="48,221 29,227 65,226" />
<polygon fill="#7e868a" fill-opacity="0.501961" points="67,193 69,190 74,191" />
<polygon fill="#253135" fill-opacity="0.501961" points="-1,43 4,-12 -16,-4" />
<polygon fill="#717675" fill-opacity="0.501961" points="110,191 105,194 101,191" />
<polygon fill="#babccc" fill-opacity="0.501961" points="5,196 6,207 12,206" />
<polygon fill="#3c4c55" fill-opacity="0.501961" points="41,199 63,208 92,202" />
<polygon fill="#bdd0dd" fill-opacity="0.501961" points="84,124 39,138 39,120" />
<polygon fill="#ced9e3" fill-opacity="0.501961" points="24,83 50,85 24,65" />
<polygon fill="#252e31" fill-opacity="0.501961" points="40,181 46,166 29,152" />
<polygon fill="#6794bb" fill-opacity="0.501961" points="68,17 51,51 103,47" />
<polygon fill="#8a8889" fill-opacity="0.501961" points="59,191 52,191 54,193" />
<polygon fill="#b50e2a" fill-opacity="0.501961" points="20,190 20,187 23,190" />
<polygon fill="#182515" fill-opacity="0.501961" points="102,80 117,103 100,90" />
<polygon fill="#0a0e09" fill-opacity="0.501961" points="118,188 118,137 129,158" />
<polygon fill="#181818" fill-opacity="0.501961" points="70,215 89,215 90,224" />
<polygon fill="#436a71" fill-opacity="0.501961" points="85,109 92,109 87,106" />
<polygon fill="#152219" fill-opacity="0.501961" points="130,86 159,102 97,93" />
<polygon fill="#e7eefa" fill-opacity="0.501961" points="63,61 49,68 86,74" />
<polygon fill="#25282e" fill-opacity="0.501961" points="97,169 129,169 109,179" />
<polygon fill="#404f53" fill-opacity="0.501961" points="34,148 33,159 24,168" />
<polygon fill="#666055" fill-opacity="0.501961" points="14,59 10,62 13,51" />
<polygon fill="#414f62" fill-opacity="0.501961" points="89,174 100,162 100,170" />
<polygon fill="#525552" fill-opacity="0.501961" points="98,229 97,222 71,226" />
<polygon fill="#000600" fill-opacity="0.501961" points="31,158 9,136 -15,136" />
<polygon fill="#030a06" fill-opacity="0.501961" points="32,124 10,129 27,120" />
<polygon fill="#5d6669" fill-opacity="0.501961" points="9,77 5,76 4,80" />
<polygon fill="#7e7e77" fill-opacity="0.501961" points="77,227 122,248 118,232" />
<polygon fill="#243525" fill-opacity="0.501961" points="118,77 123,94 110,111" />
<polygon fill="#2d3c15" fill-opacity="0.501961" points="63,157 52,157 55,151" />
<polygon fill="#a59283" fill-opacity="0.501961" points="65,215 75,212 83,215" />
<polygon fill="#7fa9c7" fill-opacity="0.501961" points="133,72 154,86 136,84" />
<polygon fill="#688190" fill-opacity="0.501961" points="23,169 20,165 11,167" />
<polygon fill="#b2c3d2" fill-opacity="0.501961" points="101,18 118,0 84,17" />
<polygon fill="#000609" fill-opacity="0.501961" points="21,203 23,187 26,193" />
<polygon fill="#628387" fill-opacity="0.501961" points="102,95 95,99 98,92" />
<polygon fill="#979a9d" fill-opacity="0.501961" points="93,193 94,191 90,191" />
<polygon fill="#050b0a" fill-opacity="0.501961" points="15,161 3,163 22,165" />
<polygon fill="#061a04" fill-opacity="0.501961" points="41,177 32,176 35,179" />
<polygon fill="#695f56" fill-opacity="0.501961" points="77,180 87,179 85,184" />
<polygon fill="#636464" fill-opacity="0.501961" points="90,212 59,213 70,206" />
<polygon fill="#1e1e11" fill-opacity="0.501961" points="131,197 123,208 159,211" />
<polygon fill="#0a0d0e" fill-opacity="0.501961" points="4,204 -13,220 -16,164" />
<polygon fill="#92a8be" fill-opacity="0.501961" points="143,-16 120,17 151,-8" />
<polygon fill="#2e2b23" fill-opacity="0.501961" points="42,182 97,182 65,192" />
<polygon fill="#0d1612" fill-opacity="0.501961" points="62,138 78,170 93,165" />
<polygon fill="#53534e" fill-opacity="0.501961" points="22,90 29,100 38,95" />
<polygon fill="#2f3f23" fill-opacity="0.501961" points="15,134 14,122 8,125" />
<polygon fill="#b3a792" fill-opacity="0.501961" points="22,212 29,214 36,212" />
<polygon fill="#4a4f4b" fill-opacity="0.501961" points="31,220 41,227 7,226" />
<polygon fill="#6f716d" fill-opacity="0.501961" points="45,175 44,185 42,180" />
<polygon fill="#474a44" fill-opacity="0.501961" points="37,100 31,121 37,141" />
<polygon fill="#a19382" fill-opacity="0.501961" points="16,214 12,211 23,213" />
<polygon fill="#dfe5f0" fill-opacity="0.501961" points="85,0 107,9 88,8" />
<polygon fill="#323f2a" fill-opacity="0.501961" points="134,113 121,112 121,119" />
<polygon fill="#97b5d4" fill-opacity="0.501961" points="85,78 90,66 98,97" />
<polygon fill="#5c605a" fill-opacity="0.501961" points="26,185 26,179 23,186" />
<polygon fill="#526672" fill-opacity="0.501961" points="83,175 76,173 83,172" />
<polygon fill="#27381f" fill-opacity="0.501961" points="105,152 123,144 114,153" />
<polygon fill="#8ca6c1" fill-opacity="0.501961" points="87,16 116,24 87,24" />
<polygon fill="#645f58" fill-opacity="0.501961" points="92,179 107,180 103,183" />
<polygon fill="#070d0e" fill-opacity="0.501961" points="-10,212 38,216 -5,228" />
<polygon fill="#153300" fill-opacity="0.501961" points="45,179 45,177 51,178" />
<polygon fill="#c5b69e" fill-opacity="0.501961" points="41,140 38,145 45,140" />
<polygon fill="#867a69" fill-opacity="0.501961" points="37,92 31,83 36,85" />
<polygon fill="#6d93b3" fill-opacity="0.501961" points="159,7 109,8 136,15" />
<polygon fill="#202b33" fill-opacity="0.501961" points="24,47 27,5 9,33" />
<polygon fill="#a3c2da" fill-opacity="0.501961" points="53,125 94,115 39,113" />
<polygon fill="#030b02" fill-opacity="0.501961" points="103,163 136,158 89,152" />
<polygon fill="#b0cce0" fill-opacity="0.501961" points="83,129 65,118 75,115" />
<polygon fill="#2f3026" fill-opacity="0.501961" points="97,193 81,193 104,205" />
<polygon fill="#1a1711" fill-opacity="0.501961" points="24,194 39,196 37,192" />
<polygon fill="#131a2b" fill-opacity="0.501961" points="70,174 67,167 56,172" />
<polygon fill="#292c21" fill-opacity="0.501961" points="106,205 120,188 117,202" />
<polygon fill="#b7cde1" fill-opacity="0.501961" points="159,186 159,179 140,173" />
<polygon fill="#647344" fill-opacity="0.501961" points="49,180 57,176 69,180" />
<polygon fill="#224112" fill-opacity="0.501961" points="90,179 81,177 91,176" />
<polygon fill="#455457" fill-opacity="0.501961" points="93,174 112,174 103,177" />
<polygon fill="#b1c1d3" fill-opacity="0.501961" points="36,15 53,21 43,28" />
<polygon fill="#0a130b" fill-opacity="0.501961" points="12,125 33,131 15,132" />
<polygon fill="#4d5252" fill-opacity="0.501961" points="122,178 123,185 126,182" />
<polygon fill="#868779" fill-opacity="0.501961" points="24,104 24,99 27,96" />
<polygon fill="#0a1309" fill-opacity="0.501961" points="96,138 85,134 100,127" />
<polygon fill="#5c5955" fill-opacity="0.501961" points="125,210 110,212 126,215" />
<polygon fill="#9dbdd7" fill-opacity="0.501961" points="74,89 86,113 36,121" />
<polygon fill="#666a5f" fill-opacity="0.501961" points="85,187 82,178 85,177" />
<polygon fill="#2a3921" fill-opacity="0.501961" points="10,99 8,103 21,105" />
<polygon fill="#3d4925" fill-opacity="0.501961" points="14,80 15,85 5,86" />
<polygon fill="#63717e" fill-opacity="0.501961" points="48,167 54,171 48,171" />
<polygon fill="#111d13" fill-opacity="0.501961" points="92,110 120,124 106,104" />
<polygon fill="#161d1c" fill-opacity="0.501961" points="28,170 30,172 22,178" />
<polygon fill="#97abc0" fill-opacity="0.501961" points="97,3 93,-16 68,-16" />
<polygon fill="#796f5b" fill-opacity="0.501961" points="11,71 9,81 13,85" />
<polygon fill="#dbe1ec" fill-opacity="0.501961" points="38,55 35,64 61,75" />
<polygon fill="#4b504b" fill-opacity="0.501961" points="31,185 26,187 28,202" />
<polygon fill="#2c3920" fill-opacity="0.501961" points="16,109 28,114 27,109" />
<polygon fill="#324632" fill-opacity="0.501961" points="85,131 100,117 85,119" />
<polygon fill="#868c8a" fill-opacity="0.501961" points="43,190 40,194 41,189" />
<polygon fill="#92836f" fill-opacity="0.501961" points="18,67 16,81 15,74" />
<polygon fill="#a79b88" fill-opacity="0.501961" points="35,104 36,100 34,96" />
<polygon fill="#bac9d8" fill-opacity="0.501961" points="72,15 86,7 85,16" />
<polygon fill="#a79f95" fill-opacity="0.501961" points="85,212 93,215 78,215" />
<polygon fill="#09110d" fill-opacity="0.501961" points="49,167 66,162 68,147" />
<polygon fill="#1e1c1a" fill-opacity="0.501961" points="16,204 24,205 10,210" />
<polygon fill="#2f4123" fill-opacity="0.501961" points="100,122 115,135 112,121" />
<polygon fill="#5e8bb1" fill-opacity="0.501961" points="106,22 110,11 116,21" />
<polygon fill="#495356" fill-opacity="0.501961" points="32,172 39,176 24,176" />
<polygon fill="#35393c" fill-opacity="0.501961" points="2,70 1,56 -5,63" />
<polygon fill="#28261d" fill-opacity="0.501961" points="39,181 45,190 30,189" />
<polygon fill="#3b4b50" fill-opacity="0.501961" points="17,174 8,172 15,179" />
<polygon fill="#8ea7bf" fill-opacity="0.501961" points="83,7 69,-7 68,10" />
<polygon fill="#637786" fill-opacity="0.501961" points="24,174 15,167 25,170" />
<polygon fill="#281a18" fill-opacity="0.501961" points="110,216 100,216 107,218" />
<polygon fill="#6c6d66" fill-opacity="0.501961" points="141,232 122,230 110,271" />
<polygon fill="#23341f" fill-opacity="0.501961" points="89,112 96,102 116,104" />
<polygon fill="#315518" fill-opacity="0.501961" points="61,179 52,178 59,176" />
<polygon fill="#2e373f" fill-opacity="0.501961" points="40,175 41,165 51,166" />
<polygon fill="#65696c" fill-opacity="0.501961" points="47,205 68,212 43,211" />
<polygon fill="#2c3837" fill-opacity="0.501961" points="93,207 103,199 119,209" />
<polygon fill="#3b3e3f" fill-opacity="0.501961" points="24,45 7,44 26,51" />
<polygon fill="#8aa3bc" fill-opacity="0.501961" points="40,8 61,-7 33,2" />
<polygon fill="#000c01" fill-opacity="0.501961" points="106,179 111,177 117,179" />
<polygon fill="#96acc5" fill-opacity="0.501961" points="39,58 25,39 25,53" />
<polygon fill="#000803" fill-opacity="0.501961" points="3,174 -16,189 -16,171" />
<polygon fill="#25351b" fill-opacity="0.501961" points="103,127 105,142 85,156" />
<polygon fill="#50504c" fill-opacity="0.501961" points="40,147 31,148 42,154" />
<polygon fill="#4f514f" fill-opacity="0.501961" points="-13,244 -9,269 7,241" />
<polygon fill="#322f25" fill-opacity="0.501961" points="49,192 90,194 68,199" />
<polygon fill="#847c6d" fill-opacity="0.501961" points="19,72 19,66 23,70" />
<polygon fill="#b8b9bb" fill-opacity="0.501961" points="46,146 48,159 51,157" />
<polygon fill="#8b8f8e" fill-opacity="0.501961" points="87,199 81,197 87,197" />
<polygon fill="#7f8481" fill-opacity="0.501961" points="2,177 3,181 0,182" />
<polygon fill="#182b3a" fill-opacity="0.501961" points="11,58 5,70 8,73" />
<polygon fill="#494e43" fill-opacity="0.501961" points="22,80 18,84 20,95" />
<polygon fill="#6a5247" fill-opacity="0.501961" points="41,199 48,203 43,194" />
<polygon fill="#121d0d" fill-opacity="0.501961" points="24,150 -1,128 36,145" />
<polygon fill="#3b3f47" fill-opacity="0.501961" points="137,172 128,169 144,169" />
<polygon fill="#010807" fill-opacity="0.501961" points="78,222 91,219 75,218" />
<polygon fill="#5b797d" fill-opacity="0.501961" points="97,91 102,98 99,98" />
<polygon fill="#293239" fill-opacity="0.501961" points="15,29 25,21 25,45" />
<polygon fill="#0c130d" fill-opacity="0.501961" points="84,145 76,153 83,128" />
<polygon fill="#706d68" fill-opacity="0.501961" points="71,208 103,208 85,213" />
<polygon fill="#485766" fill-opacity="0.501961" points="8,48 6,55 9,63" />
<polygon fill="#050907" fill-opacity="0.501961" points="108,222 90,222 99,217" />
<polygon fill="#121d16" fill-opacity="0.501961" points="87,123 132,118 107,114" />
<polygon fill="#78a2c5" fill-opacity="0.501961" points="159,76 159,34 131,79" />
<polygon fill="#080c0c" fill-opacity="0.501961" points="7,39 6,56 1,57" />
<polygon fill="#091109" fill-opacity="0.501961" points="15,92 23,100 18,112" />
<polygon fill="#e4eaf5" fill-opacity="0.501961" points="43,62 25,57 28,75" />
<polygon fill="#40525e" fill-opacity="0.501961" points="63,199 91,207 48,207" />
<polygon fill="#2f3e20" fill-opacity="0.501961" points="20,143 26,141 23,148" />
<polygon fill="#060e06" fill-opacity="0.501961" points="108,139 100,156 123,134" />
<polygon fill="#050a11" fill-opacity="0.501961" points="39,201 42,208 44,206" />
<polygon fill="#476c6e" fill-opacity="0.501961" points="82,122 77,123 81,121" />
<polygon fill="#b6c4d2" fill-opacity="0.501961" points="26,46 27,22 34,32" />
<polygon fill="#1d1f1d" fill-opacity="0.501961" points="46,162 35,170 36,158" />
<polygon fill="#a8bbd0" fill-opacity="0.501961" points="68,52 42,62 66,60" />
<polygon fill="#4f4e45" fill-opacity="0.501961" points="109,199 97,197 115,191" />
<polygon fill="#000501" fill-opacity="0.501961" points="6,114 8,92 -8,109" />
<polygon fill="#7d807b" fill-opacity="0.501961" points="82,247 105,246 85,261" />
<polygon fill="#373b3b" fill-opacity="0.501961" points="113,181 118,173 114,165" />
<polygon fill="#2e2f1d" fill-opacity="0.501961" points="131,162 130,166 123,166" />
<polygon fill="#2b271d" fill-opacity="0.501961" points="95,181 99,200 104,181" />
<polygon fill="#101213" fill-opacity="0.501961" points="20,198 11,188 4,190" />
<polygon fill="#15232d" fill-opacity="0.501961" points="11,22 28,-2 25,23" />
<polygon fill="#404840" fill-opacity="0.501961" points="11,186 13,182 16,187" />
<polygon fill="#666b6a" fill-opacity="0.501961" points="28,192 33,191 24,190" />
<polygon fill="#5b5248" fill-opacity="0.501961" points="45,149 43,155 36,144" />
<polygon fill="#b8d0e1" fill-opacity="0.501961" points="74,113 86,111 80,118" />
<polygon fill="#3c4a3b" fill-opacity="0.501961" points="26,136 21,134 27,131" />
<polygon fill="#a8a094" fill-opacity="0.501961" points="112,213 115,216 102,215" />
<polygon fill="#27311b" fill-opacity="0.501961" points="15,88 8,100 14,76" />
<polygon fill="#aba196" fill-opacity="0.501961" points="125,214 122,217 133,217" />
<polygon fill="#50524e" fill-opacity="0.501961" points="97,225 78,221 62,227" />
<polygon fill="#6993b8" fill-opacity="0.501961" points="82,36 71,21 49,40" />
<polygon fill="#56534c" fill-opacity="0.501961" points="107,211 117,213 106,214" />
<polygon fill="#130f0e" fill-opacity="0.501961" points="111,173 101,167 103,173" />
<polygon fill="#1e3950" fill-opacity="0.501961" points="11,29 8,17 13,5" />
<polygon fill="#000000" fill-opacity="0.501961" points="20,198 14,202 15,205" />
<polygon fill="#686966" fill-opacity="0.501961" points="72,247 81,233 79,225" />
<polygon fill="#a9c4d8" fill-opacity="0.501961" points="68,124 91,128 55,111" />
<polygon fill="#2b3c1f" fill-opacity="0.501961" points="91,122 87,128 90,130" />
<polygon fill="#080d0e" fill-opacity="0.501961" points="29,208 29,204 15,209" />
<polygon fill="#2d3e21" fill-opacity="0.501961" points="127,125 135,129 115,127" />
<polygon fill="#859692" fill-opacity="0.501961" points="1,163 -16,158 -16,163" />
<polygon fill="#6b635f" fill-opacity="0.501961" points="3,209 14,212 -4,212" />
<polygon fill="#030b04" fill-opacity="0.501961" points="128,96 128,110 135,96" />
<polygon fill="#c2d0dc" fill-opacity="0.501961" points="46,136 38,127 38,113" />
<polygon fill="#49504c" fill-opacity="0.501961" points="39,140 35,126 34,137" />
<polygon fill="#39482b" fill-opacity="0.501961" points="117,96 122,102 128,101" />
<polygon fill="#102907" fill-opacity="0.501961" points="102,176 103,179 94,179" />
<polygon fill="#2b3630" fill-opacity="0.501961" points="34,112 35,124 24,128" />
<polygon fill="#020701" fill-opacity="0.501961" points="121,178 121,147 130,147" />
<polygon fill="#000000" fill-opacity="0.501961" points="134,222 149,221 153,227" />
<polygon fill="#545856" fill-opacity="0.501961" points="159,237 120,227 159,226" />
<polygon fill="#797873" fill-opacity="0.501961" points="26,240 20,228 -2,238" />
<polygon fill="#001d57" fill-opacity="0.501961" points="92,174 85,174 92,168" />
<polygon fill="#726766" fill-opacity="0.501961" points="38,181 35,179 44,180" />
<polygon fill="#b0c8dd" fill-opacity="0.501961" points="93,103 75,104 88,89" />
<polygon fill="#ced8e2" fill-opacity="0.501961" points="30,16 30,28 44,25" />
<polygon fill="#7b7b78" fill-opacity="0.501961" points="33,242 90,231 44,226" />
<polygon fill="#0d1009" fill-opacity="0.501961" points="109,169 119,163 137,167" />
<polygon fill="#65819e" fill-opacity="0.501961" points="143,103 153,102 159,113" />
<polygon fill="#6b7283" fill-opacity="0.501961" points="74,169 69,173 75,172" />
<polygon fill="#6c7c88" fill-opacity="0.501961" points="93,170 94,173 94,167" />
<polygon fill="#252e3a" fill-opacity="0.501961" points="59,167 72,170 73,176" />
<polygon fill="#453534" fill-opacity="0.501961" points="58,214 52,214 59,216" />
<polygon fill="#1b2b44" fill-opacity="0.501961" points="125,110 118,112 114,117" />
<polygon fill="#0b120a" fill-opacity="0.501961" points="31,157 15,164 15,140" />
<polygon fill="#93b1cd" fill-opacity="0.501961" points="54,83 54,90 45,88" />
<polygon fill="#5f635e" fill-opacity="0.501961" points="84,246 93,242 106,245" />
<polygon fill="#598bb5" fill-opacity="0.501961" points="120,42 72,31 159,22" />
<polygon fill="#141e19" fill-opacity="0.501961" points="148,180 140,175 138,179" />
<polygon fill="#2d2922" fill-opacity="0.501961" points="90,190 67,183 82,181" />
<polygon fill="#a5b7ca" fill-opacity="0.501961" points="120,24 122,11 113,11" />
<polygon fill="#0a1114" fill-opacity="0.501961" points="8,21 10,10 4,-1" />
<polygon fill="#121d11" fill-opacity="0.501961" points="121,88 122,96 102,96" />
<polygon fill="#a58c7c" fill-opacity="0.501961" points="43,213 46,215 51,213" />
<polygon fill="#bacbda" fill-opacity="0.501961" points="37,74 67,83 47,69" />
<polygon fill="#2a3f29" fill-opacity="0.501961" points="133,80 129,85 115,81" />
<polygon fill="#545753" fill-opacity="0.501961" points="75,175 70,188 76,182" />
<polygon fill="#292718" fill-opacity="0.501961" points="159,195 154,206 118,195" />
<polygon fill="#123409" fill-opacity="0.501961" points="77,176 83,178 76,178" />
<polygon fill="#6797bf" fill-opacity="0.501961" points="141,33 159,56 99,70" />
<polygon fill="#050c06" fill-opacity="0.501961" points="118,106 121,112 129,111" />
<polygon fill="#587291" fill-opacity="0.501961" points="54,166 57,166 56,170" />
<polygon fill="#b59975" fill-opacity="0.501961" points="27,83 32,86 31,83" />
<polygon fill="#d7e1ec" fill-opacity="0.501961" points="87,68 74,88 77,65" />
<polygon fill="#434b4f" fill-opacity="0.501961" points="31,165 20,162 26,160" />
<polygon fill="#a8c9dc" fill-opacity="0.501961" points="70,134 53,138 77,124" />
<polygon fill="#76a1c6" fill-opacity="0.501961" points="110,80 91,76 137,59" />
<polygon fill="#3e403a" fill-opacity="0.501961" points="88,190 76,202 82,190" />
<polygon fill="#293032" fill-opacity="0.501961" points="67,206 58,206 63,208" />
<polygon fill="#1d2927" fill-opacity="0.501961" points="79,152 75,165 75,147" />
<polygon fill="#97a0ba" fill-opacity="0.501961" points="7,205 15,198 12,197" />
<polygon fill="#dae1ec" fill-opacity="0.501961" points="71,53 60,65 82,53" />
<polygon fill="#282c34" fill-opacity="0.501961" points="8,211 3,213 13,214" />
<polygon fill="#484a47" fill-opacity="0.501961" points="25,98 33,106 32,92" />
<polygon fill="#6d6962" fill-opacity="0.501961" points="129,215 108,209 124,209" />
<polygon fill="#2b271d" fill-opacity="0.501961" points="136,197 110,183 141,181" />
<polygon fill="#322f30" fill-opacity="0.501961" points="41,152 32,156 39,162" />
<polygon fill="#050a0d" fill-opacity="0.501961" points="15,198 15,205 26,189" />
<polygon fill="#afa391" fill-opacity="0.501961" points="34,95 30,87 36,93" />
<polygon fill="#192b1f" fill-opacity="0.501961" points="8,89 -6,79 8,78" />
<polygon fill="#40739c" fill-opacity="0.501961" points="140,5 159,11 159,-14" />
<polygon fill="#b3c4d4" fill-opacity="0.501961" points="32,48 42,49 44,34" />
<polygon fill="#5d656b" fill-opacity="0.501961" points="33,127 28,125 29,128" />
<polygon fill="#3b4f2c" fill-opacity="0.501961" points="1,125 -16,116 -14,140" />
<polygon fill="#7a9bbc" fill-opacity="0.501961" points="96,29 61,11 50,25" />
<polygon fill="#486b56" fill-opacity="0.501961" points="116,78 123,77 110,84" />
<polygon fill="#d7dfe8" fill-opacity="0.501961" points="28,45 34,36 40,40" />
<polygon fill="#97b7d8" fill-opacity="0.501961" points="97,87 100,80 77,88" />
<polygon fill="#b7cadb" fill-opacity="0.501961" points="39,112 41,102 63,104" />
<polygon fill="#000000" fill-opacity="0.501961" points="6,215 -9,220 17,219" />
<polygon fill="#bdcbd6" fill-opacity="0.501961" points="25,74 28,79 23,91" />
<polygon fill="#83a9c4" fill-opacity="0.501961" points="117,72 121,78 126,70" />
<polygon fill="#bacad7" fill-opacity="0.501961" points="33,83 38,72 26,83" />
<polygon fill="#2c3f2b" fill-opacity="0.501961" points="90,115 98,105 92,106" />
<polygon fill="#605c54" fill-opacity="0.501961" points="16,59 23,63 18,46" />
<polygon fill="#3c453d" fill-opacity="0.501961" points="56,196 66,199 42,203" />
<polygon fill="#001007" fill-opacity="0.501961" points="6,179 14,179 6,174" />
<polygon fill="#152016" fill-opacity="0.501961" points="19,116 26,124 36,125" />
<polygon fill="#c5d0d6" fill-opacity="0.501961" points="42,139 58,136 56,149" />
<polygon fill="#2d4020" fill-opacity="0.501961" points="135,90 131,96 146,87" />
<polygon fill="#020704" fill-opacity="0.501961" points="24,139 -8,147 7,152" />
<polygon fill="#1a2922" fill-opacity="0.501961" points="83,129 88,134 78,130" />
<polygon fill="#96b9d6" fill-opacity="0.501961" points="48,114 87,106 71,116" />
<polygon fill="#3b563d" fill-opacity="0.501961" points="126,77 134,78 127,75" />
<polygon fill="#636c61" fill-opacity="0.501961" points="65,181 60,174 61,181" />
<polygon fill="#0d1809" fill-opacity="0.501961" points="103,135 119,150 108,131" />
<polygon fill="#1a325a" fill-opacity="0.501961" points="36,211 35,204 34,211" />
<polygon fill="#2c3d1f" fill-opacity="0.501961" points="123,87 116,79 108,93" />
<polygon fill="#181724" fill-opacity="0.501961" points="35,199 30,206 44,206" />
<polygon fill="#656867" fill-opacity="0.501961" points="23,251 8,253 35,228" />
<polygon fill="#252828" fill-opacity="0.501961" points="21,164 25,164 29,169" />
<polygon fill="#0f1415" fill-opacity="0.501961" points="1,210 -16,204 4,193" />
<polygon fill="#6d6a60" fill-opacity="0.501961" points="134,210 147,210 140,215" />
<polygon fill="#141c22" fill-opacity="0.501961" points="10,76 7,76 9,66" />
<polygon fill="#719cc1" fill-opacity="0.501961" points="48,44 80,47 42,57" />
<polygon fill="#666662" fill-opacity="0.501961" points="35,97 37,93 38,101" />
<polygon fill="#9bb9d2" fill-opacity="0.501961" points="62,106 93,83 64,92" />
<polygon fill="#393c3d" fill-opacity="0.501961" points="99,164 91,165 98,161" />
<polygon fill="#6a7171" fill-opacity="0.501961" points="91,254 54,251 52,239" />
<polygon fill="#585b57" fill-opacity="0.501961" points="94,186 93,188 92,184" />
<polygon fill="#011c4a" fill-opacity="0.501961" points="80,166 82,169 91,168" />
<polygon fill="#272d2e" fill-opacity="0.501961" points="20,36 9,54 17,11" />
<polygon fill="#628db1" fill-opacity="0.501961" points="117,7 126,4 138,18" />
<polygon fill="#394e81" fill-opacity="0.501961" points="34,209 35,212 27,209" />
<polygon fill="#9f998b" fill-opacity="0.501961" points="58,212 64,214 55,214" />
<polygon fill="#b7c8d7" fill-opacity="0.501961" points="47,82 41,103 38,93" />
<polygon fill="#19292f" fill-opacity="0.501961" points="53,167 54,172 58,176" />
<polygon fill="#081109" fill-opacity="0.501961" points="11,113 17,105 23,134" />
<polygon fill="#2b3c1c" fill-opacity="0.501961" points="85,140 89,135 90,154" />
<polygon fill="#6f94b7" fill-opacity="0.501961" points="85,-15 29,14 53,17" />
<polygon fill="#b1cde0" fill-opacity="0.501961" points="70,127 75,133 83,123" />
</g>
</svg>